<?xml version="1.0" encoding="UTF-8"?>
<svg id="Capa_2" data-name="Capa 2" xmlns="http://www.w3.org/2000/svg" viewBox="0 0 47.28 47.28">
  <defs>
    <style>
      .cls-1 {
        fill: #0e3ca5;
      }
    </style>
  </defs>
  <g id="Capa_1-2" data-name="Capa 1">
    <g>
      <path class="cls-1" d="M23.64,0c13.03,0,23.64,10.6,23.64,23.64,0,13.03-10.6,23.64-23.64,23.64C10.6,47.28,0,36.67,0,23.64,0,10.6,10.6,0,23.64,0ZM23.64,44.31c11.4,0,20.67-9.27,20.67-20.67,0-11.4-9.27-20.67-20.67-20.67-11.4,0-20.67,9.27-20.67,20.67,0,11.4,9.27,20.67,20.67,20.67Z"/>
      <path class="cls-1" d="M23.64,15.51c.37,0,.72.18.94.48l8.97,12.42c.37.52.26,1.24-.26,1.61-.52.37-1.24.26-1.61-.26l-8.03-11.12-8.03,11.12c-.37.52-1.09.63-1.61.26-.52-.37-.63-1.09-.26-1.61l8.97-12.42c.22-.3.56-.48.94-.48Z"/>
    </g>
  </g>
</svg>