<svg width="92" height="69" viewBox="0 0 92 69" fill="none" xmlns="http://www.w3.org/2000/svg">
<g filter="url(#filter0_d_1061_31517)">
<g filter="url(#filter1_b_1061_31517)">
<path fill-rule="evenodd" clip-rule="evenodd" d="M62 34.9987C60.834 34.9987 59.6684 35.0045 58.5025 34.9917C57.3866 34.9793 56.1376 34.9616 55.0516 34.5451C53.8785 34.0951 53.1019 33.3082 52.3205 32.3821C51.7579 31.716 50.6529 30.2949 50.1149 29.6087C49.6745 29.0462 48.8124 27.9342 48.3418 27.3962C47.7493 26.7194 47.0169 26 45.9997 26C44.9824 26 44.2504 26.7194 43.6582 27.3955C43.1876 27.9332 42.3255 29.0458 41.8848 29.608C41.3474 30.2942 40.2424 31.7153 39.6795 32.3814C38.8968 33.3075 38.1215 34.0944 36.9487 34.5444C35.8624 34.9599 34.6131 34.9786 33.4979 34.991C32.3316 35.0038 31.166 34.998 30 34.998" fill="white"/>
</g>
</g>
<defs>
<filter id="filter0_d_1061_31517" x="0" y="0" width="92" height="69" filterUnits="userSpaceOnUse" color-interpolation-filters="sRGB">
<feFlood flood-opacity="0" result="BackgroundImageFix"/>
<feColorMatrix in="SourceAlpha" type="matrix" values="0 0 0 0 0 0 0 0 0 0 0 0 0 0 0 0 0 0 127 0" result="hardAlpha"/>
<feOffset dy="4"/>
<feGaussianBlur stdDeviation="15"/>
<feComposite in2="hardAlpha" operator="out"/>
<feColorMatrix type="matrix" values="0 0 0 0 0 0 0 0 0 0 0 0 0 0 0 0 0 0 0.05 0"/>
<feBlend mode="normal" in2="BackgroundImageFix" result="effect1_dropShadow_1061_31517"/>
<feBlend mode="normal" in="SourceGraphic" in2="effect1_dropShadow_1061_31517" result="shape"/>
</filter>
<filter id="filter1_b_1061_31517" x="5.02765" y="1.02765" width="81.9447" height="58.9447" filterUnits="userSpaceOnUse" color-interpolation-filters="sRGB">
<feFlood flood-opacity="0" result="BackgroundImageFix"/>
<feGaussianBlur in="BackgroundImage" stdDeviation="12.4862"/>
<feComposite in2="SourceAlpha" operator="in" result="effect1_backgroundBlur_1061_31517"/>
<feBlend mode="normal" in="SourceGraphic" in2="effect1_backgroundBlur_1061_31517" result="shape"/>
</filter>
</defs>
</svg>
