<svg width="25" height="24" viewBox="0 0 25 24" fill="none" xmlns="http://www.w3.org/2000/svg">
<path d="M12.2109 23.9747C18.8384 23.9747 24.2109 18.6078 24.2109 11.9874C24.2109 5.36692 18.8384 0 12.2109 0C5.58352 0 0.210938 5.36692 0.210938 11.9874C0.210938 18.6078 5.58352 23.9747 12.2109 23.9747Z" fill="#F1F1F1"/>
<path d="M12.2112 16.3887C12.0126 16.3887 11.8194 16.2923 11.7067 16.1314L6.84984 9.414C6.6459 9.13522 6.71031 8.74386 6.98938 8.54014C7.26845 8.33642 7.66019 8.40076 7.86412 8.67953L12.2166 14.7L16.569 8.67953C16.7729 8.40076 17.1593 8.33642 17.4438 8.54014C17.7228 8.74386 17.7872 9.12986 17.5833 9.414L12.7264 16.1314C12.6083 16.2923 12.4205 16.3887 12.2219 16.3887H12.2112Z" fill="#0E3CA5" stroke="#0E3CA5"/>
</svg>
