<?xml version="1.0" encoding="UTF-8"?>
<svg id="Capa_2" data-name="Capa 2" xmlns="http://www.w3.org/2000/svg" xmlns:xlink="http://www.w3.org/1999/xlink" viewBox="0 0 538 376.78">
  <defs>
    <style>
      .cls-1, .cls-2, .cls-3 {
        fill: #f1f1f1;
      }

      .cls-2 {
        filter: url(#drop-shadow-2);
      }

      .cls-3 {
        font-family: UrbaneRounded-DemiBold, 'Urbane Rounded';
        font-size: 190.81px;
        font-weight: 300;
      }

      .cls-4 {
        fill: #0e3ca5;
      }

      .cls-5 {
        fill: #5586f1;
        filter: url(#drop-shadow-1);
      }
    </style>
    <filter id="drop-shadow-1" x="217" y="0" width="321" height="321" filterUnits="userSpaceOnUse">
      <feOffset dx="1" dy="1"/>
      <feGaussianBlur result="blur" stdDeviation="7"/>
      <feFlood flood-color="#000" flood-opacity=".07"/>
      <feComposite in2="blur" operator="in"/>
      <feComposite in="SourceGraphic"/>
    </filter>
    <filter id="drop-shadow-2" x="0" y="214" width="440" height="152" filterUnits="userSpaceOnUse">
      <feOffset dx="1" dy="1"/>
      <feGaussianBlur result="blur-2" stdDeviation="7"/>
      <feFlood flood-color="#000" flood-opacity=".07"/>
      <feComposite in2="blur-2" operator="in"/>
      <feComposite in="SourceGraphic"/>
    </filter>
  </defs>
  <g id="Capa_1-2" data-name="Capa 1">
    <g>
      <rect class="cls-5" x="237.33" y="20.26" width="278.5" height="278.5" rx="83.66" ry="83.66"/>
      <rect class="cls-2" x="20.99" y="234.88" width="396.96" height="108.93" rx="54.47" ry="54.47"/>
      <text class="cls-3" transform="translate(315.09 223.55)"><tspan x="0" y="0">?</tspan></text>
      <path class="cls-1" d="M70.65,335.11v35.35c0,5.63,6.81,8.45,10.79,4.47l46.19-46.19-56.98,6.38Z"/>
      <g>
        <path class="cls-4" d="M153.79,307.33c-5.87,0-10.65-1.59-14.32-4.77-3.67-3.18-5.5-7.56-5.5-13.14s1.84-9.98,5.5-13.22c3.67-3.23,8.44-4.84,14.32-4.84s10.4,1.61,14.17,4.84c3.77,3.23,5.65,7.64,5.65,13.22s-1.89,9.96-5.65,13.14c-3.77,3.18-8.49,4.77-14.17,4.77Z"/>
        <path class="cls-4" d="M217.51,307.33c-5.87,0-10.65-1.59-14.32-4.77-3.67-3.18-5.5-7.56-5.5-13.14s1.84-9.98,5.5-13.22c3.67-3.23,8.44-4.84,14.32-4.84s10.4,1.61,14.17,4.84c3.77,3.23,5.65,7.64,5.65,13.22s-1.89,9.96-5.65,13.14c-3.77,3.18-8.49,4.77-14.17,4.77Z"/>
        <path class="cls-4" d="M281.23,307.33c-5.87,0-10.65-1.59-14.32-4.77-3.67-3.18-5.5-7.56-5.5-13.14s1.84-9.98,5.5-13.22c3.67-3.23,8.44-4.84,14.32-4.84s10.4,1.61,14.17,4.84c3.77,3.23,5.65,7.64,5.65,13.22s-1.89,9.96-5.65,13.14c-3.77,3.18-8.49,4.77-14.17,4.77Z"/>
      </g>
    </g>
  </g>
</svg>