<svg width="90" height="90" viewBox="0 0 90 90" fill="none" xmlns="http://www.w3.org/2000/svg">
<g filter="url(#filter0_d_283_359)">
<path d="M43.7934 74.5155C60.6049 74.5155 74.2333 60.8978 74.2333 44.0995C74.2333 27.3013 60.6049 13.6836 43.7934 13.6836C26.9819 13.6836 13.3535 27.3013 13.3535 44.0995C13.3535 60.8978 26.9819 74.5155 43.7934 74.5155Z" fill="#F1F1F1"/>
<path d="M43.7926 32.3584C47.6186 32.3584 48.0732 32.3723 49.584 32.4422C50.9829 32.5051 51.7383 32.7428 52.2489 32.9385C52.9204 33.197 53.396 33.5116 53.8996 34.0078C54.4032 34.511 54.7109 34.9862 54.9697 35.6572C55.1656 36.1604 55.3964 36.9222 55.4663 38.32C55.5363 39.8296 55.5503 40.2838 55.5503 44.1068C55.5503 47.9298 55.5363 48.384 55.4663 49.8937C55.4034 51.2915 55.1656 52.0463 54.9697 52.5565C54.7109 53.2274 54.3962 53.7026 53.8996 54.2058C53.403 54.7091 52.9204 55.0166 52.2489 55.2752C51.7453 55.4709 50.9829 55.7085 49.584 55.7714C48.0732 55.8413 47.6186 55.8552 43.7926 55.8552C39.9666 55.8552 39.512 55.8413 38.0012 55.7714C36.6023 55.7085 35.8469 55.4709 35.3363 55.2752C34.6648 55.0166 34.1892 54.7021 33.6856 54.2058C33.182 53.7026 32.8742 53.2274 32.6154 52.5565C32.4196 52.0533 32.1888 51.2915 32.1188 49.8937C32.0489 48.384 32.0349 47.9298 32.0349 44.1068C32.0349 40.2838 32.0489 39.8296 32.1188 38.32C32.1818 36.9222 32.4196 36.1674 32.6154 35.6572C32.8742 34.9862 33.189 34.511 33.6856 34.0078C34.1892 33.5046 34.6648 33.197 35.3363 32.9385C35.8399 32.7428 36.6023 32.5051 38.0012 32.4422C39.512 32.3723 39.9666 32.3584 43.7926 32.3584ZM43.7926 29.7725C39.8967 29.7725 39.4071 29.7864 37.8823 29.8563C36.3575 29.9262 35.3153 30.1708 34.399 30.5203C33.4548 30.8837 32.6574 31.3729 31.86 32.1767C31.0627 32.9734 30.5731 33.7701 30.2093 34.7136C29.8526 35.6222 29.6148 36.6636 29.5449 38.1942C29.4749 39.7247 29.4609 40.207 29.4609 44.0998C29.4609 47.9927 29.4749 48.4819 29.5449 50.0055C29.6148 51.5291 29.8596 52.5704 30.2093 53.486C30.5731 54.4295 31.0627 55.2262 31.86 56.023C32.6574 56.8197 33.4548 57.3089 34.399 57.6724C35.3083 58.0288 36.3505 58.2664 37.8823 58.3363C39.4141 58.4062 39.8967 58.4202 43.7926 58.4202C47.6885 58.4202 48.1781 58.4062 49.7029 58.3363C51.2277 58.2664 52.2699 58.0218 53.1861 57.6724C54.1304 57.3089 54.9278 56.8197 55.7251 56.023C56.5225 55.2262 57.0121 54.4295 57.3758 53.486C57.7325 52.5774 57.9704 51.5361 58.0403 50.0055C58.1102 48.4749 58.1242 47.9857 58.1242 44.0998C58.1242 40.214 58.1102 39.7177 58.0403 38.1942C57.9704 36.6706 57.7256 35.6292 57.3758 34.7136C57.0121 33.7701 56.5155 32.9734 55.7251 32.1767C54.9278 31.3799 54.1304 30.8907 53.1861 30.5203C52.2769 30.1638 51.2347 29.9262 49.7029 29.8563C48.1711 29.7864 47.6885 29.7725 43.7926 29.7725Z" fill="#0E3CA5"/>
<path d="M43.7929 36.7471C39.7291 36.7471 36.4277 40.0389 36.4277 44.1064C36.4277 48.174 39.7221 51.4658 43.7929 51.4658C47.8637 51.4658 51.1581 48.174 51.1581 44.1064C51.1581 40.0389 47.8637 36.7471 43.7929 36.7471ZM43.7929 48.8799C41.156 48.8799 39.0157 46.7413 39.0157 44.1064C39.0157 41.4716 41.156 39.333 43.7929 39.333C46.4298 39.333 48.5701 41.4716 48.5701 44.1064C48.5701 46.7413 46.4298 48.8799 43.7929 48.8799Z" fill="#0E3CA5"/>
<path d="M53.1639 36.4537C53.1639 37.4042 52.3945 38.1729 51.4433 38.1729C50.4921 38.1729 49.7227 37.4042 49.7227 36.4537C49.7227 35.5032 50.4921 34.7344 51.4433 34.7344C52.3945 34.7344 53.1639 35.5032 53.1639 36.4537Z" fill="#0E3CA5"/>
</g>
<defs>
<filter id="filter0_d_283_359" x="0.353516" y="0.683594" width="88.8789" height="88.832" filterUnits="userSpaceOnUse" color-interpolation-filters="sRGB">
<feFlood flood-opacity="0" result="BackgroundImageFix"/>
<feColorMatrix in="SourceAlpha" type="matrix" values="0 0 0 0 0 0 0 0 0 0 0 0 0 0 0 0 0 0 127 0" result="hardAlpha"/>
<feOffset dx="1" dy="1"/>
<feGaussianBlur stdDeviation="7"/>
<feColorMatrix type="matrix" values="0 0 0 0 0 0 0 0 0 0 0 0 0 0 0 0 0 0 0.07 0"/>
<feBlend mode="normal" in2="BackgroundImageFix" result="effect1_dropShadow_283_359"/>
<feBlend mode="normal" in="SourceGraphic" in2="effect1_dropShadow_283_359" result="shape"/>
</filter>
</defs>
</svg>
