<svg width="392" height="783" viewBox="0 0 392 783" fill="none" xmlns="http://www.w3.org/2000/svg">
<g filter="url(#filter0_d_283_386)">
<path d="M108.093 700.893V764.109H138.703L144.04 766.441C144.04 766.441 144.366 766.774 145.699 766.441C147.032 766.108 151.03 766.59 151.03 766.59V764.782C151.03 764.782 155.347 763.45 158.346 763.776C161.344 764.109 168.993 761.458 170.326 760.451C171.651 759.452 172.318 756.127 172.318 756.127C172.318 756.127 164.662 755.794 161.004 755.794C157.346 755.794 152.675 752.802 152.675 752.802C152.675 752.802 145.359 739.157 140.198 739.157C135.038 739.157 127.063 737.647 128.062 733.748C129.055 729.85 122.398 725.518 121.073 723.86C119.733 722.201 116.408 715.212 114.409 715.212C112.41 715.212 109.752 712.539 110.751 711.214C111.751 709.881 114.083 709.548 114.409 707.216C114.742 704.883 108.086 700.9 108.086 700.9L108.093 700.893Z" stroke="white" stroke-width="2" stroke-miterlimit="10"/>
<path d="M99.778 322.552C102.755 323.913 107.094 324.678 111.255 325.571C111.212 340.167 111.212 355.138 111.34 356.499C111.638 359.178 87.1315 377.134 84.0337 377.814C80.9217 378.452 75.8178 386.455 75.8178 389.135C75.8178 391.814 58.4998 395.685 58.4998 395.685L55.1893 406.403H43.6133C43.6133 399.931 43.8685 393.26 44.0811 392.105C44.5419 389.893 46.548 391.899 47.0939 389.893C47.6539 387.894 44.2867 388.107 44.2867 385.895C44.2867 383.684 46.7607 383.769 47.8666 382.571C48.9582 381.345 47.5263 379.133 47.3066 375.688C47.0939 372.243 49.8585 373.001 51.177 368.706C52.5027 364.367 50.4115 360.702 51.177 358.278C51.9497 355.811 60.0735 354.068 61.3849 351.601C62.7106 349.176 58.9676 349.51 58.0674 347.383C57.1742 345.306 58.9677 342.839 59.5206 340.068C60.0735 337.31 58.0674 337.438 57.1742 335.304C56.281 333.185 56.4937 313.017 56.6213 311.224C56.7063 309.494 58.7054 308.594 63.384 303.909C68.0201 299.273 66.496 299.698 68.0201 298.939C68.0201 298.939 80.2341 316.54 84.0195 317.909C87.7624 319.234 92.434 319.234 99.7567 322.545L99.778 322.552Z" stroke="white" stroke-width="2" stroke-miterlimit="10"/>
<path d="M158.99 553.258C159.671 555.47 158.558 563.459 156.991 565.677C155.467 567.889 153.249 565.883 152.575 567.251C151.887 568.569 157.261 570.356 156.991 571.249C156.779 572.1 154.142 571.249 152.788 572.575C151.462 573.893 155.673 575.892 154.361 577.005C153 578.104 148.57 577.898 145.465 580.57C142.36 583.207 135.512 588.099 133.506 592.309C131.521 596.52 126.276 604.176 124.284 606.742C122.285 609.286 122.065 622.046 121.852 624.045C121.647 626.044 111.772 630.134 111.432 630.262C110.999 630.262 108.32 627.242 107.434 625.796C106.54 624.35 107.767 617.587 107.221 617.587C106.675 617.587 106.413 622.606 105.434 624.137C104.414 625.718 100.749 622.691 100.331 623.924C99.8981 625.158 104.414 626.271 105.307 626.271C106.2 626.271 108.114 632.012 108.114 632.012C108.114 632.012 101.429 637.669 100.118 639.328C98.7852 641.036 98.7852 642.688 97.7715 646.346C96.8003 650.01 98.1046 651.322 98.1046 657.666C98.1046 664.01 99.7705 665.315 100.118 669.958C100.451 674.643 115.082 690.593 112.743 692.585C110.404 694.584 100.451 688.587 98.7851 687.275C97.0909 685.95 91.7672 688.594 90.1155 689.267C88.4567 689.905 84.7918 684.929 82.4596 681.952C80.1628 678.925 55.196 682.257 49.8723 681.952C44.5486 681.611 49.8723 678.592 49.8723 678.592C49.8723 678.592 42.5496 677.266 38.8988 672.928C35.2339 668.639 37.871 662.635 39.1966 659.956C40.5718 657.319 36.2193 656.971 36.2193 656.971C36.2193 656.971 42.5496 652.336 40.2174 651.315C37.871 650.344 40.5647 643.999 36.8998 641.66C33.2491 639.314 24.225 650.337 20.9074 646.331C17.5899 642.334 17.2567 633.019 15.2505 628.681C13.2586 624.343 15.2505 607.408 15.2505 607.408C19.036 605.501 19.2416 607.621 21.8006 607.16C24.3526 606.735 26.6919 601.496 27.6702 598.306C28.6909 595.074 30.69 597.207 32.2141 595.627C33.7878 594.096 32.9868 588.311 32.9868 586.986C32.9868 585.66 36.6375 586.227 37.7859 585.334C38.8917 584.441 37.8639 581.669 37.233 576.565C36.5524 571.462 34.8937 572.993 34.4258 572.227C34.0005 571.462 35.6593 568.222 37.8639 566.358C40.0827 564.486 36.6375 559.595 36.8927 557.469C37.1054 555.378 44.0879 557.164 43.6554 554.279C43.1947 551.387 42.4291 543.291 42.9749 541.938C43.5278 540.619 48.0718 541.172 49.7376 540.066C51.3964 538.967 46.2145 529.646 46.2145 528.072C46.2145 526.499 51.0632 523.436 51.0632 523.436L125.503 519.991C123.929 522.876 125.716 530.879 125.29 532.623C124.829 534.409 126.616 535.515 127.722 537.514C128.82 539.513 135.498 547.048 135.498 548.232C135.498 549.416 142.133 549.047 143.246 548.317C144.352 547.552 147.032 552.145 149.449 551.713C151.873 551.252 151.235 547.715 153.241 548.395C155.24 549.04 158.345 551.032 158.983 553.251L158.99 553.258Z" stroke="white" stroke-width="2" stroke-miterlimit="10"/>
<path d="M372.846 101.175C376.163 97.432 377.737 85.6507 370.166 83.4391C362.638 81.2203 355.528 81.4401 355.117 86.3312C354.649 91.2152 357.995 96.2765 353.118 103.167C348.219 110.057 353.543 110.482 344.909 113.162C336.268 115.799 332.262 112.481 329.377 116.054C326.485 119.584 325.847 121.796 324.054 122.256C322.267 122.689 320.048 118.691 315.632 120.477C311.166 122.256 306.062 124.22 304.956 122.001C303.85 119.789 303.85 116.266 298.739 117.79C293.635 119.371 279.21 121.363 281.889 117.16C284.576 112.949 287.418 111.793 289.892 108.483C292.317 105.166 292.104 97.4178 293.21 95.6315C294.309 93.8451 295.634 94.0578 297.208 91.6335C298.739 89.2092 302.107 86.9479 302.95 83.8502C303.843 80.7383 302.305 81.8937 294.529 77.3428C286.781 72.792 271.043 68.7869 268.158 63.3428C265.266 57.8988 262.501 55.4745 261.473 55.3469C260.502 55.2618 243.312 55.8147 241.526 53.0502C239.739 50.236 239.739 48.8396 236.889 46.9185C233.997 45.0542 228.978 44.8416 225.788 39.8158C223.236 35.9028 216.601 31.4299 213.581 28.6299C212.766 27.8715 212.206 27.2264 212.05 26.7585C211.235 24.4122 205.365 23.3064 206.046 20.4213C206.684 17.5292 192.053 19.3155 188.735 19.4431C185.418 19.5282 180.392 22.0801 181.292 25.6527C182.178 29.1828 180.952 34.712 179.201 33.9464C177.414 33.1879 176.188 21.1869 172.651 21.1869C170.021 21.1869 164.612 21.3145 161.713 21.4846C160.699 21.5271 160.011 21.5697 159.806 21.6547C158.99 21.8674 154.439 23.1008 151.802 20.7616C149.123 18.4223 148.783 19.4431 147.677 17.7844C146.571 16.0831 144.905 13.7864 143.594 14.2117C142.275 14.6796 143.671 16.7636 143.381 19.7408C143.041 22.7606 136.363 19.3155 135.378 22.2077C134.357 25.0998 135.505 26.6309 134.612 27.8715C133.719 29.0623 130.706 28.6299 130.819 29.8634C130.954 31.0613 130.139 47.8188 128.062 50.0304C127.552 50.5833 127.169 51.0016 126.914 51.434C125.978 52.7099 126.02 53.6456 125.935 55.8998C125.857 58.9196 106.413 61.0036 105.434 63.8107C104.414 66.5753 101.429 72.232 102.755 77.2082C102.755 77.2082 99.9831 77.8887 100.89 82.1844C101.784 86.5226 106.959 97.1555 104.881 98.396C102.762 99.6294 100.21 99.8421 100.21 102.266C100.21 104.691 108.887 111.708 105.775 114.133C102.677 116.6 95.9071 113.24 95.0989 116.047C94.3333 118.804 95.3612 121.788 93.6953 124.468C91.994 127.098 92.4619 129.572 92.4619 129.572C92.4619 129.572 84.253 134.973 84.0475 137.1C83.8348 139.184 81.7011 141.183 81.4884 143.43C81.2757 145.649 79.2767 147.86 80.7228 150.192C82.1264 152.496 82.814 156.154 81.5735 156.494C80.3755 156.827 76.9303 158.146 76.9303 160.145C76.9303 162.144 80.815 167.467 79.0215 169.807C77.2847 172.146 76.5971 172.911 77.3627 174.145C78.1779 175.336 80.5952 175.804 78.4686 177.462C76.3774 179.121 73.6198 179.802 73.953 182.566C74.2578 185.324 70.7205 184.565 70.7205 187.67C70.7205 190.775 71.401 195.198 70.1676 195.538C68.9341 195.879 67.488 195.971 67.7007 202.521C67.9559 209.07 72.1595 209.198 71.479 211.495C70.7914 213.834 68.5938 213.281 69.9407 216.854C71.2734 220.391 71.1458 225.02 72.7975 225.835C72.7975 225.835 81.4742 226.728 81.4742 222.383C81.4742 218.038 81.5593 216.726 84.0333 215.705C86.4506 214.734 87.4785 205.072 91.1363 208.723C94.8012 212.395 93.4331 219.065 99.4302 216.889C105.427 214.727 106.753 211.743 109.092 210.722C111.432 209.744 110.744 205.703 113.09 208.723C115.43 211.743 116.075 215.067 119.087 214.727C120.314 214.6 121.639 214.344 122.752 214.344C124.284 214.344 125.475 214.897 125.808 216.769C126.403 220.037 129.047 230.039 130.706 238.672C132.407 247.349 134.066 245.102 136.058 252.198C138.022 259.307 142.7 270.954 143.679 272.96C144.699 274.952 143.679 292.907 143.679 292.907L111.346 297.196C111.346 297.196 111.261 311.146 111.261 325.529C117.386 326.812 123.05 328.251 123.05 331.824C123.093 337.821 118.067 339.146 126.921 341.826C135.725 344.456 123.093 346.462 138.702 348.461C154.361 350.453 154.361 354.578 168.652 353.515C182.951 352.452 197.157 361.135 197.157 361.135V258.613H227.865L242.837 239.303L246.204 245.35L252.705 233.306C253.952 234.327 255.228 235.093 256.837 236.241C261.048 239.353 256.625 239.991 263.947 242.663C271.263 245.35 275.474 239.559 278.997 245.556C282.577 251.552 287.213 252.19 287.213 252.19C288.064 244.109 286.49 238.148 288.106 235.128C290.105 231.35 293.635 233.555 294.309 229.564C294.989 225.559 293.898 209.397 295.634 207.192C297.421 204.973 294.529 203.187 294.791 199.614C294.989 196.091 299.633 189.449 299.207 187.195C298.909 185.919 297.251 184.856 296.733 183.544C296.528 183.112 296.478 182.602 296.691 182.091V182.049C296.903 181.496 297.414 180.851 298.307 180.135C302.518 176.768 306.516 174.776 307.409 170.565C308.302 166.354 331.355 143.721 333.361 142.615C335.36 141.509 338.004 143.302 338.685 139.723C339.365 136.2 337.366 135.774 341.364 133.095C345.32 130.408 371.946 115.777 372.839 111.567C373.732 107.356 369.528 104.932 372.839 101.139L372.846 101.175ZM147.592 95.9008C151.334 92.5834 155.722 90.5418 160.096 94.7525C166.299 100.749 172.31 102.756 174.728 97.432C174.728 97.432 176.982 105.598 171.318 109.936C165.661 114.274 172.31 115.933 171.318 118.28C170.304 120.569 166.987 121.59 165.661 125.928C164.307 130.231 159.331 129.593 155.666 125.928C152.001 122.263 151.327 115.253 152.901 112.956C154.432 110.61 152.348 107.292 147.592 103.634C143.636 100.579 146.266 97.2122 147.258 96.1915C147.379 96.0709 147.507 95.9859 147.592 95.8937V95.9008Z" stroke="white" stroke-width="2" stroke-miterlimit="10"/>
<path d="M287.212 252.24C286.999 254.112 286.659 256.111 286.106 258.237C283.214 269.338 306.309 269.125 310.953 275.98C315.624 282.87 312.732 284.954 310.059 292.27C307.422 299.635 319.714 299.932 322.394 300.946C325.024 301.924 322.394 310.608 322.394 314.266C322.394 317.923 313.724 327.238 309.719 331.533C305.763 335.865 308.401 335.198 304.41 341.528C300.404 347.873 232.132 362.078 228.977 362.078C225.823 362.078 221.662 356.166 219.918 356.499C218.181 356.84 218.897 363.134 218.982 365.048C219.067 366.962 221.322 367.473 221.995 369.131C222.675 370.79 223.569 379.133 221.995 379.339C220.464 379.552 220.676 383.337 220.464 386.016C220.209 388.653 218.472 386.016 216.685 388.441C214.899 390.872 219.578 394.657 218.897 398.868C218.259 403.079 215.367 404.652 214.006 406.396" stroke="white" stroke-width="2" stroke-miterlimit="10"/>
<path d="M68.041 298.954C69.6147 298.188 67.963 285.847 68.3742 282.402C68.8562 279.006 70.0401 277.426 71.394 275.767C72.7196 274.108 72.1596 274.186 72.0391 271.641C71.954 269.132 76.8028 264.021 78.7168 261.342C80.5811 258.662 79.8155 258.577 77.3557 257.563C74.9384 256.585 78.0362 249.135 78.1709 247.051C78.2489 244.924 79.8226 244.031 79.8226 241.394C79.8226 238.757 76.1719 239.821 75.3567 239.055C74.5911 238.289 75.8245 236.375 76.8099 233.731C77.8236 231.052 73.8326 231.179 72.592 230.286C71.4011 229.393 74.5131 226.622 72.8047 225.87" stroke="white" stroke-width="2" stroke-miterlimit="10"/>
<path d="M51.0711 523.436C51.0711 523.436 46.7682 513.909 46.7682 511.995C46.7682 510.081 55.9482 508.586 56.6358 506.253C57.2738 503.907 53.3182 502.674 48.8523 499.909C44.4218 497.138 42.6354 495.826 42.5503 493.274C42.4298 490.722 54.417 491.701 54.1618 488.716C53.9562 485.704 46.8461 488.163 45.953 486.505C45.1023 484.846 45.1945 483.272 45.7403 478.374C46.3003 473.525 47.1013 476.637 46.7682 472.639C46.4279 468.634 48.0796 468.507 48.0796 466.423C48.0796 464.339 43.6633 464.969 42.3022 463.311C40.9766 461.652 44.2942 461.184 45.953 457.987C47.6614 454.755 38.9847 452.338 38.5522 450.339C38.0915 448.34 38.0915 443.576 40.0054 438.557C41.8698 433.581 39.4454 431.497 39.7502 429.243C40.0834 427.031 45.1023 431.022 46.5555 428.477C47.1439 427.371 47.0234 426.606 46.7682 425.84C46.3854 424.869 45.7403 424.011 46.2152 422.608C46.9808 420.184 45.4 421.282 44.2942 419.163C43.7909 418.142 43.6137 412.4 43.6137 406.403" stroke="white" stroke-width="2" stroke-miterlimit="10"/>
<path d="M197.149 361.185V391.091L213.999 406.41C212.681 408.196 193.144 408.409 190.94 408.409C188.735 408.409 173.416 398.875 171.885 398.875C170.354 398.875 167.88 400.406 167.419 403.766C166.994 407.083 170.779 416.617 169.666 422.82C168.525 429.037 175.89 430.135 176.096 431.716C176.301 433.247 173.416 439.464 172.097 442.562C170.772 445.667 182.093 447.233 182.305 450.777C182.518 454.343 172.31 454.088 171.204 458.979C170.098 463.877 166.788 467.188 165.668 469.619C164.569 472.086 165.895 481.188 165.668 483.825C165.42 486.504 161.457 489.148 159.203 492.714C156.949 496.251 160.096 496.924 159.203 498.93C158.26 500.929 152.78 498.93 148.775 498.93C144.77 498.93 147.251 499.568 144.359 502.928C141.467 506.253 139.248 504.892 137.461 505.565C135.725 506.253 127.041 517.098 125.51 519.991" stroke="white" stroke-width="2" stroke-miterlimit="10"/>
<path d="M161.705 21.4922C161.705 21.4922 156.679 28.6517 158.451 32.7489C160.224 36.8603 163.995 35.7474 164.328 40.6314C164.654 45.5155 158.671 47.1742 165.328 50.3854C171.977 53.6107 178.633 50.7185 178.853 56.4886C179.087 62.2588 178.527 69.5742 169.432 67.5823C160.33 65.5833 158.451 67.6886 155.786 62.5919C153.128 57.4881 151.795 59.9266 150.682 55.6026C149.583 51.2785 152.575 45.5155 146.911 45.2816C141.261 45.0689 137.27 44.2821 138.936 49.2795C140.595 54.2699 141.268 60.8127 137.603 59.8203C133.938 58.8208 126.906 51.4345 126.906 51.4345" stroke="white" stroke-width="2" stroke-miterlimit="10"/>
<path d="M213.574 28.6514C213.574 28.6514 216.884 53.7096 214.893 62.3861C212.893 71.02 203.153 82.3405 197.149 86.5511C191.152 90.7618 186.509 85.02 180.519 85.8635C174.515 86.7567 177.194 92.0802 174.734 97.4392" stroke="white" stroke-width="2" stroke-miterlimit="10"/>
<path d="M147.593 95.9009C147.508 95.9859 147.38 96.0781 147.259 96.1986C145.806 97.4816 144.488 98.9632 143.254 100.282C138.838 105.18 139.476 96.5389 135.251 92.7606C131.04 88.9682 139.029 85.6508 137.725 81.2275C136.364 76.8113 119.719 81.2275 112.886 82.1206C105.988 83.0138 102.756 77.2295 102.756 77.2295" stroke="white" stroke-width="2" stroke-miterlimit="10"/>
<path d="M289.885 108.504C289.885 108.504 278.791 103.181 275.013 99.8491C271.249 96.5245 272.794 101.401 267.251 94.3058C261.707 87.2172 261.707 92.0871 252.612 81.6597C243.517 71.2324 243.517 73.0116 239.087 69.8997C234.642 66.7949 235.316 66.3483 229.985 62.5843C224.661 58.8131 215.545 57.4805 215.545 57.4805" stroke="white" stroke-width="2" stroke-miterlimit="10"/>
<path d="M197.164 86.5509C197.164 86.5509 228.433 84.7788 228.667 88.1033C228.894 91.4279 228.894 98.5236 229.992 106.293C231.098 114.055 229.992 130.245 229.992 130.245" stroke="white" stroke-width="2" stroke-miterlimit="10"/>
<path d="M252.705 233.349C250.713 231.69 248.842 229.351 245.949 223.396C241.306 213.862 244.844 218.76 245.311 210.084C245.737 201.443 252.84 198.813 256.377 192.596C259.943 186.38 265.472 182.807 269.257 177.498C269.513 177.115 269.725 176.774 269.938 176.477C272.369 172.174 268.159 171.883 268.159 165.078C268.159 157.763 277.686 154.445 276.573 149.98C275.474 145.549 280.103 137.128 280.996 132.024C281.89 126.92 245.304 127.813 234.884 129.132C232.977 129.394 231.361 129.6 230.042 129.855C224.208 130.918 223.783 132.357 224.676 137.808C225.746 144.188 216.254 173.492 215.574 175.584C215.531 175.669 215.531 175.711 215.531 175.711" stroke="white" stroke-width="2" stroke-miterlimit="10"/>
<path d="M296.727 183.594C296.727 183.594 297.422 180.83 293.657 177.051C289.886 173.28 289.44 171.721 286.108 173.053C282.776 174.393 279.019 179.703 278.572 176.378C278.119 173.053 281.677 173.45 279.678 172.586C277.679 171.714 273.419 178.597 269.889 176.484" stroke="white" stroke-width="2" stroke-miterlimit="10"/>
<path d="M92.4551 129.579C92.4551 129.579 105.102 119.924 105.102 126.587V134.902C105.102 134.902 117.075 133.243 117.748 139.233C118.421 145.216 126.396 138.9 130.728 137.234C135.052 135.568 142.375 137.298 142.708 141.764C143.034 146.223 147.691 147.548 151.03 154.537C154.355 161.527 156.651 171.862 159.161 172.514" stroke="white" stroke-width="2" stroke-miterlimit="10"/>
<path d="M171.643 163.186C168.985 153.545 166.319 149.54 166.653 145.883C166.993 142.218 165.66 125.914 165.66 125.914" stroke="white" stroke-width="2" stroke-miterlimit="10"/>
<path d="M213.815 258.683L227.88 232.066C227.88 232.066 213.574 212.763 217.565 207.44C221.556 202.109 223.222 200.117 223.222 196.793C223.222 193.468 224.229 183.594 224.229 183.594C224.229 183.594 215.552 180.383 215.552 178.051C215.552 175.718 216.899 176.186 212.575 172.514C208.251 168.842 206.259 167.177 203.593 167.177C200.928 167.177 186.63 162.853 186.63 163.186C186.63 163.519 179.817 158.529 178.903 158.862C177.974 159.188 165.668 162.853 165.668 165.178C165.668 167.503 168.993 171.529 165.668 172.507C162.336 173.5 159.345 170.168 156.353 176.491C153.355 182.814 150.689 208.758 150.689 208.758" stroke="white" stroke-width="2" stroke-miterlimit="10"/>
<path d="M84.0254 137.121C84.0254 137.121 99.1033 147.222 98.7772 150.547C98.444 153.871 95.1265 162.52 96.7853 163.193C98.444 163.852 98.444 160.861 102.775 163.193C107.107 165.525 128.735 181.829 129.72 185.487C130.727 189.151 128.394 197.459 129.72 199.799C131.053 202.117 138.701 208.766 138.701 208.766" stroke="white" stroke-width="2" stroke-miterlimit="10"/>
<path d="M122.752 214.38C122.752 214.38 122.794 208.383 124.326 207.107C125.899 205.831 128.409 208.426 130.706 208.759C132.194 208.986 134.952 208.936 138.489 208.589C140.573 208.383 142.955 208.085 145.457 207.653C147.074 207.398 148.903 207.355 150.824 207.525C156.814 208.036 163.364 210.63 165.661 214.416C168.645 219.392 168.298 217.095 171.622 218.421C174.989 219.739 172.31 224.411 171.622 228.713C170.984 233.052 168.645 235.391 168.645 235.391V271.975H165.661L164.307 292.957H143.671" stroke="white" stroke-width="2" stroke-miterlimit="10"/>
<path d="M252.705 233.349V233.313" stroke="white" stroke-width="2" stroke-miterlimit="10"/>
<path d="M46.7617 425.868H168.654" stroke="white" stroke-width="2" stroke-miterlimit="10"/>
<path d="M191.415 437.21L185.417 446.376C185.417 446.376 178.102 451.033 185.417 454.358C192.747 457.682 194.073 453.684 192.747 457.682C191.415 461.68 198.071 464.331 199.397 457.682C200.729 451.033 200.729 447.035 199.397 444.377C198.064 441.712 198.064 436.026 191.415 437.203V437.21Z" stroke="white" stroke-width="2" stroke-miterlimit="10"/>
<path d="M242.759 698.312C242.759 698.312 249.607 703.649 254.605 699.708C259.595 695.76 257.043 695.873 262.381 695.412C267.719 694.945 268.655 694.25 271.554 690.422C274.46 686.587 279.217 682.993 276.084 681.363C272.95 679.732 270.165 686.353 263.891 684.843C257.617 683.334 252.393 680.08 251.932 682.291C251.464 684.496 253.676 686.935 259.134 688.097C264.593 689.26 257.738 689.153 254.257 692.981C250.777 696.809 238.003 692.981 242.759 698.319V698.312Z" stroke="white" stroke-width="2" stroke-miterlimit="10"/>
<path d="M273.836 703.423C273.836 703.423 269.966 700.949 269.81 698.624C269.654 696.298 272.95 691.039 277.111 689.954C281.273 688.87 278.947 692.896 283.591 693.981C288.234 695.065 292.104 697.851 288.078 698.468C284.051 699.084 282.322 695.214 279.784 697.695C277.239 700.169 275.58 698.312 277.111 702.494C278.636 706.676 273.836 703.423 273.836 703.423Z" stroke="white" stroke-width="2" stroke-miterlimit="10"/>
<path d="M279.792 686.545C279.792 686.545 283.443 688.034 283.599 689.77C283.755 691.5 288.398 694.761 294.438 692.974C300.477 691.188 310.231 689.643 304.964 688.09C299.698 686.545 300.477 683.135 303.419 683.603C306.361 684.071 304.816 679.988 299.237 681.101C293.665 682.214 298.025 687.963 293.133 680.909C288.242 673.849 281.742 680.201 285.612 684.227C289.483 688.253 278.552 680.548 279.792 686.552V686.545Z" stroke="white" stroke-width="2" stroke-miterlimit="10"/>
</g>
<defs>
<filter id="filter0_d_283_386" x="0.365234" y="0.160156" width="391.234" height="782.558" filterUnits="userSpaceOnUse" color-interpolation-filters="sRGB">
<feFlood flood-opacity="0" result="BackgroundImageFix"/>
<feColorMatrix in="SourceAlpha" type="matrix" values="0 0 0 0 0 0 0 0 0 0 0 0 0 0 0 0 0 0 127 0" result="hardAlpha"/>
<feOffset dx="1" dy="1"/>
<feGaussianBlur stdDeviation="7"/>
<feColorMatrix type="matrix" values="0 0 0 0 0 0 0 0 0 0 0 0 0 0 0 0 0 0 0.07 0"/>
<feBlend mode="normal" in2="BackgroundImageFix" result="effect1_dropShadow_283_386"/>
<feBlend mode="normal" in="SourceGraphic" in2="effect1_dropShadow_283_386" result="shape"/>
</filter>
</defs>
</svg>
