<?xml version="1.0" encoding="UTF-8"?>
<svg id="Capa_2" data-name="Capa 2" xmlns="http://www.w3.org/2000/svg" viewBox="0 0 178.72 110.96">
  <defs>
    <style>
      .cls-1 {
        fill: #f79e1b;
      }

      .cls-1, .cls-2, .cls-3 {
        fill-rule: evenodd;
      }

      .cls-2 {
        fill: #ff5f00;
      }

      .cls-3 {
        fill: #eb001b;
      }
    </style>
  </defs>
  <g id="Capa_1-2" data-name="Capa 1">
    <g id="Components---Sprint-3">
      <g id="assets-_-logo-_-mastercard-_-symbol" data-name="assets-/-logo-/-mastercard-/-symbol">
        <polygon id="Fill-1" class="cls-2" points="65.19 99.1 113.52 99.1 113.52 11.86 65.19 11.86 65.19 99.1"/>
        <path id="Fill-2" class="cls-3" d="M68.26,55.48c0-17.7,8.25-33.46,21.09-43.62C79.96,4.43,68.11,0,55.23,0,24.72,0,0,24.84,0,55.48s24.72,55.48,55.23,55.48c12.88,0,24.74-4.43,34.13-11.86-12.85-10.16-21.09-25.92-21.09-43.62"/>
        <path id="Fill-4" class="cls-1" d="M176.99,89.86v-2.15h-.56l-.64,1.48-.64-1.48h-.56v2.15h.39v-1.62l.6,1.4h.41l.6-1.4v1.63h.39ZM173.45,89.86v-1.79h.72v-.36h-1.83v.36h.72v1.79h.39ZM178.72,55.48c0,30.64-24.73,55.48-55.23,55.48-12.88,0-24.74-4.43-34.13-11.86,12.85-10.16,21.09-25.92,21.09-43.62s-8.25-33.46-21.09-43.62C98.75,4.43,110.61,0,123.49,0c30.5,0,55.23,24.84,55.23,55.48h0Z"/>
      </g>
    </g>
  </g>
</svg>